<svg xmlns="http://www.w3.org/2000/svg" height="464" viewBox="0 0 512 464" width="512"><path d="M367.497 354.687c-9.476-1.494-9.692-27.327-9.692-27.327s27.844-27.328 33.912-64.076c16.326 0 26.407-39.069 10.082-52.814C402.48 196 422.783 96.882 320 96.882c-102.782 0-82.479 99.118-81.799 113.588-16.327 13.745-6.244 52.814 10.081 52.814 6.067 36.748 33.913 64.076 33.913 64.076s-.216 25.833-9.692 27.327C241.979 359.503 128 409.345 128 464h384c0-54.655-113.979-104.497-144.503-109.313Zm-195.47 8.718c22.047-13.575 48.813-26.154 70.769-33.712-7.876-11.216-16.647-26.468-22.165-44.531-7.703-6.283-13.972-15.266-17.999-26.301-4.033-11.052-5.561-23.426-4.304-34.842.902-8.196 3.239-15.833 6.825-22.544-2.175-23.293-3.707-69.017 26.224-102.366 11.607-12.933 26.278-22.23 43.85-27.843C272.09 38.886 255.647.881 192 .881c-102.782 0-82.479 99.118-81.799 113.588-16.327 13.745-6.244 52.814 10.081 52.814 6.067 36.748 33.913 64.076 33.913 64.076s-.216 25.833-9.692 27.327C113.979 263.503 0 313.345 0 368h164.798c2.355-1.537 4.753-3.07 7.229-4.595Z" fill="currentColor"/></svg>
