<svg xmlns="http://www.w3.org/2000/svg" width="404" height="404" viewBox='0 0 404 404'><path d="M291.483341 308.868831c-7.378448-1.300174-7.546636-23.781704-7.546636-23.781704s21.680615-23.782575 26.405438-55.763037c12.712172 0 20.561701-34.000344 7.850308-45.962123.530257-12.59272 16.339104-98.8515473-63.692451-98.8515473-80.030776 0-64.22193 86.2588273-63.692451 98.8515473-12.71295 11.961779-4.861864 45.962123 7.849529 45.962123 4.724044 31.980462 26.406217 55.763037 26.406217 55.763037s-.168188 22.48153-7.546636 23.781704C193.749273 313.060022 105 356.435721 105 404h299c0-47.564279-88.749273-90.939978-112.516659-95.131169Zm-142.661821 6.621897c19.072984-11.813802 42.2284-22.760822 61.222658-29.33826-6.813572-9.760854-14.401413-23.034085-19.175065-38.753621-6.663909-5.467854-12.087256-13.285414-15.571036-22.888751-3.488971-9.618132-4.810852-20.386749-3.723414-30.321656.780325-7.132664 2.802077-13.778852 5.904345-19.619178-1.881604-20.271004-3.206946-60.062847 22.68653-89.0852023 10.04128-11.2550937 22.733244-19.3459161 37.93488-24.2306947C235.386582 33.0742934 221.161651 0 166.100275 0 77.1829911 0 94.7472301 86.2585922 95.3355017 98.8512781c-14.124579 11.9617469-5.4017192 45.9619979 8.7211303 45.9619979 5.248595 31.980374 29.338326 55.762884 29.338326 55.762884s-.186863 22.481469-8.384604 23.78164C98.6038708 228.54985 0 271.925431 0 319.48958h142.567672c2.037324-1.337592 4.111847-2.671703 6.253848-3.998852Z" fill="currentColor"/></svg>
